<?xml version="1.0" standalone="no"?>
<!DOCTYPE svg PUBLIC "-//W3C//DTD SVG 20010904//EN"
 "http://www.w3.org/TR/2001/REC-SVG-20010904/DTD/svg10.dtd">
<svg version="1.0" xmlns="http://www.w3.org/2000/svg"
 width="240.000000pt" height="120.000000pt" viewBox="0 0 240.000000 120.000000"
 preserveAspectRatio="xMidYMid meet">

<g transform="translate(0.000000,120.000000) scale(0.100000,-0.100000)"
fill="#000000" stroke="none">
<path d="M143 783 c9 -2 25 -2 35 0 9 3 1 5 -18 5 -19 0 -27 -2 -17 -5z"/>
<path d="M743 755 c-10 -30 -7 -45 18 -111 16 -41 29 -77 29 -79 0 -2 -28 -6
-62 -8 l-63 -3 66 -2 65 -2 18 -55 c16 -51 19 -55 48 -55 25 0 29 3 23 18 -4
9 -32 85 -62 167 -31 83 -59 153 -63 158 -3 4 -11 -8 -17 -28z"/>
<path d="M1508 783 c12 -2 32 -2 45 0 12 2 2 4 -23 4 -25 0 -35 -2 -22 -4z"/>
<path d="M71 751 c-89 -84 -76 -251 24 -303 l20 -11 -20 23 c-18 19 -20 36
-20 140 0 107 2 121 23 149 29 39 14 40 -27 2z"/>
<path d="M212 768 c9 -7 23 -26 32 -43 l15 -30 1 43 c0 41 -1 42 -32 42 -27 0
-30 -2 -16 -12z"/>
<path d="M375 610 l0 -170 28 0 27 0 0 170 0 170 -27 0 -28 0 0 -170z"/>
<path d="M993 753 c8 -15 38 -92 67 -171 29 -79 56 -140 60 -135 14 15 30 77
22 82 -4 3 -28 60 -53 126 -44 118 -45 120 -77 123 l-33 3 14 -28z"/>
<path d="M1228 773 c-2 -5 -2 -81 0 -170 l3 -163 27 0 27 0 0 170 0 170 -27 0
c-15 0 -28 -3 -30 -7z"/>
<path d="M1440 754 c-44 -38 -63 -81 -63 -144 0 -72 32 -133 86 -162 16 -8 15
-4 -5 22 -21 29 -23 42 -23 140 0 97 2 112 23 139 28 38 23 39 -18 5z"/>
<path d="M1600 746 c40 -67 35 -241 -8 -290 -16 -18 -16 -18 4 -8 35 18 73 70
80 108 16 88 -17 183 -76 214 -19 10 -19 10 0 -24z"/>
<path d="M1770 633 c3 -82 9 -154 14 -162 13 -20 71 -41 113 -40 l38 1 -38 8
c-68 13 -72 22 -75 190 l-3 150 -27 0 -27 0 5 -147z"/>
<path d="M1998 773 c7 -3 16 -2 19 1 4 3 -2 6 -13 5 -11 0 -14 -3 -6 -6z"/>
<path d="M2120 610 l0 -170 28 0 27 0 -3 85 -3 85 43 0 c50 0 105 29 117 63
18 49 -32 108 -91 106 -23 0 -23 0 2 -10 33 -13 40 -26 40 -76 0 -53 -20 -73
-71 -73 l-41 0 4 80 3 80 -27 0 -28 0 0 -170z"/>
<path d="M2278 598 c5 -7 13 -38 17 -68 8 -60 27 -90 59 -90 15 0 17 3 8 12
-7 7 -12 34 -12 60 0 39 -5 54 -25 73 -25 26 -67 36 -47 13z"/>
<path d="M220 517 c0 -29 -5 -58 -12 -65 -15 -15 -3 -16 23 -1 15 7 24 7 35
-2 12 -10 14 -2 14 55 l0 66 -30 0 c-30 0 -30 -1 -30 -53z"/>
<path d="M580 517 c0 -26 -34 -62 -65 -70 -11 -3 1 -5 28 -6 l47 -1 0 50 c0
28 -2 50 -5 50 -3 0 -5 -10 -5 -23z"/>
<path d="M1961 460 c-13 -11 -19 -20 -14 -20 6 0 18 9 28 20 23 25 17 25 -14
0z"/>
<path d="M975 450 c-3 -5 1 -10 10 -10 9 0 13 5 10 10 -3 6 -8 10 -10 10 -2 0
-7 -4 -10 -10z"/>
<path d="M628 443 c7 -3 16 -2 19 1 4 3 -2 6 -13 5 -11 0 -14 -3 -6 -6z"/>
<path d="M138 433 c12 -2 30 -2 40 0 9 3 -1 5 -23 4 -22 0 -30 -2 -17 -4z"/>
<path d="M1508 433 c12 -2 32 -2 45 0 12 2 2 4 -23 4 -25 0 -35 -2 -22 -4z"/>
</g>
</svg>
