<?xml version="1.0" standalone="no"?>
<!DOCTYPE svg PUBLIC "-//W3C//DTD SVG 20010904//EN"
 "http://www.w3.org/TR/2001/REC-SVG-20010904/DTD/svg10.dtd">
<svg version="1.0" xmlns="http://www.w3.org/2000/svg"
 width="512.000000pt" height="512.000000pt" viewBox="0 0 512.000000 512.000000"
 preserveAspectRatio="xMidYMid meet">

<g transform="translate(0.000000,512.000000) scale(0.100000,-0.100000)"
fill="#000000" stroke="none">
<path d="M2520 4597 c-57 -20 -80 -65 -80 -162 l0 -81 -103 -12 c-598 -70
-1053 -431 -1287 -1020 -41 -103 -89 -268 -110 -374 l-11 -58 -92 0 c-102 0
-126 -10 -152 -60 -18 -34 -19 -73 -4 -103 6 -12 74 -122 151 -245 98 -156
149 -227 169 -237 43 -23 3076 -22 3119 0 20 10 67 76 156 217 170 270 174
277 174 322 0 30 -7 45 -34 72 -34 34 -34 34 -129 34 l-96 0 -11 58 c-52 267
-165 539 -312 754 -104 153 -277 319 -434 420 -175 112 -447 201 -681 224
l-73 7 0 81 c0 63 -4 88 -20 113 -30 50 -82 69 -140 50z m270 -492 c561 -85
973 -478 1131 -1079 16 -61 29 -117 29 -123 0 -10 -285 -13 -1390 -13 -765 0
-1390 3 -1390 8 0 4 11 52 24 107 117 479 421 856 820 1015 89 36 236 75 329
89 100 14 343 12 447 -4z m1308 -1483 c-13 -20 -39 -63 -58 -95 l-35 -57
-1445 0 -1445 0 -35 57 c-19 32 -45 75 -58 95 l-23 38 1561 0 1561 0 -23 -38z"/>
<path d="M522 2084 c-53 -37 -52 -17 -52 -777 l0 -704 23 -34 c13 -19 38 -39
57 -46 44 -15 658 -18 711 -3 55 15 81 49 88 117 l6 58 1616 5 c1760 5 1633 1
1665 61 21 42 17 71 -21 144 -179 344 -532 551 -1057 620 -154 21 -413 35
-631 35 l-188 0 -80 79 c-90 91 -218 180 -317 221 -130 55 -184 60 -605 60
l-385 0 -4 61 c-4 54 -9 66 -36 90 l-32 29 -368 0 c-317 0 -371 -2 -390 -16z
m598 -774 l0 -560 -205 0 -205 0 0 560 0 560 205 0 205 0 0 -560z m1025 365
c68 -14 190 -67 230 -99 18 -14 4 -15 -178 -16 -220 0 -244 -5 -273 -62 -29
-57 -7 -128 51 -161 14 -9 218 -14 720 -18 561 -5 721 -9 805 -22 369 -55 595
-147 760 -308 l55 -54 -1474 -3 c-811 -1 -1477 0 -1480 4 -3 3 -7 174 -9 380
l-4 374 363 0 c282 0 380 -4 434 -15z"/>
</g>
</svg>
